<?xml version="1.0" encoding="UTF-8"?>
<svg id="Layer_2" data-name="Layer 2" xmlns="http://www.w3.org/2000/svg" viewBox="0 0 115.12 115.12">
  <defs>
    <style>
      .cls-1 {
        fill: #fff;
      }

      .cls-2 {
        fill: #39b54a;
      }
    </style>
  </defs>
  <g id="Layer_1-2" data-name="Layer 1">
    <g>
      <rect class="cls-2" width="115.12" height="115.12" rx="30.81" ry="30.81"/>
      <g>
        <path class="cls-1" d="M62.67,15.54c-6.63-.97-13.45-.15-19.67,2.35,3.79,3.87,7.53,7.82,10.91,12.03.89,1.11,1.93,2.33,2.7,3.34,2.92,3.86,5.67,7.79,8.18,11.91.77,1.26,1.61,1.87,2.34,1.78,1.12-.13,2.02-1.88,2.04-5.36.05-8.7-2.63-18.24-6.51-26.05"/>
        <path class="cls-1" d="M54.62,41.39c-7.1-6.36-17.14-10.95-26.42-13.15-5.16,5.71-8.69,12.79-10.23,20.33,5.79-.71,11.61-1.36,17.37-1.55,1.49-.05,3.18-.13,4.51-.13,4.96.04,9.86.26,14.78.84,1.47.17,2.47-.16,2.87-.86.61-1.07-.14-3.03-2.88-5.49"/>
        <path class="cls-1" d="M51.38,55.17c-.45-1.21-2.45-1.85-6.11-1.07-9.59,2.02-19.54,7.77-26.88,14.27,1.84,7.43,5.62,14.35,11,19.81,2.72-4.97,5.59-9.88,8.73-14.52.83-1.23,1.77-2.64,2.56-3.73,3.02-4.09,6.16-8.03,9.59-11.77,1.04-1.13,1.4-2.19,1.11-2.99"/>
        <path class="cls-1" d="M59.37,86.03c-.37-1.25-.81-2.69-1.12-3.87-1.16-4.66-2.12-9.31-2.77-14.05-.21-1.5-.78-2.44-1.55-2.67-1.18-.36-2.89.92-4.49,4.33-3.91,8.31-5.57,18.86-4.94,28.07,6.53,1.91,12.87,2.81,19.64,1.55-1.75-4.42-3.44-8.87-4.77-13.36"/>
        <path class="cls-1" d="M80.13,76.62c-1.03-.41-2.22-.83-3.17-1.24-3.88-1.57-7.58-3.55-11.17-5.67-1.18-.69-2.19-.79-2.82-.31-.97.73-1.07,2.85.35,5.96,3.17,6.94,9.03,13.75,15.49,17.98,5.07-3.43,9.33-8,12.43-13.27-3.76-.95-7.52-2.04-11.12-3.46"/>
        <path class="cls-1" d="M96.3,47.96c-3.02,2.49-11.38,8.3-12.25,8.83,0,0,0,0,0,0-3.45,2.17-7.12,3.98-10.83,5.63-1.21.53-1.89,1.3-1.95,2.09-.09,1.2,1.32,2.53,4.27,3.18,6.65,1.47,14.61.67,21.04-1.84.84-6.2.77-11.72-.28-17.89"/>
        <path class="cls-1" d="M77.6,21.03c-.28,4.65-.61,9.3-1.24,13.85-.17,1.23-.36,2.67-.56,3.8-.8,4.43-1.77,8.79-3.01,13.11-.39,1.36-.29,2.41.23,2.96.79.83,2.59.49,4.93-1.56,5.6-4.89,10.08-12.23,12.55-19.29-3.29-5.18-7.7-9.62-12.9-12.86"/>
      </g>
    </g>
  </g>
</svg>