<svg xmlns="http://www.w3.org/2000/svg" viewBox="0 0 64 64" role="img" aria-label="Sicredi">
  <path
    fill="none"
    stroke="#3FA110"
    stroke-linecap="round"
    stroke-linejoin="round"
    stroke-width="110"
    transform="translate(4 4) scale(.0275)"
    d="M2028.07,1102.18c.03,1.44.17,2.85.11,4.32-.38,10.68-.01,1.82-.77,18.52-.12,2.73-.86,4.94-5.49,7.54-.18.1-.37.17-.55.26-155.77,73.87-352.16,111.21-521.51,92.12-76.12-8.55-114.85-36.96-115.31-66.14-.32-19.12,15.29-39.07,44.59-54.85,90.1-48.54,178.56-100.95,260.85-161.44.14.08,28.05-20.87,29.84-22.04,12.66-9.64,25.56-19.59,37.62-28.63,78.13-58.5,151.16-123.9,221.85-190.9,38.09,136.64,52.8,261.67,48.78,401.23ZM1527.74,870.86c-54.42,54.77-99.1,67.45-120.93,49.36-14.33-11.83-19.35-36.85-12.58-70.5,21.44-106.74,35.82-213.77,45.92-322.15.03-.01.07-.04.11-.06,2.32-27.69,3.93-62.64,5.37-92.62,5.46-110.77,3.25-223.44-.43-335.73,139.01,65.41,260.61,161.53,355.51,277.96-.04,0-.07.02-.11.02-46.29,175.71-142.68,362.6-272.85,493.72ZM1240.15,747.26c-18.31,3.83-41.01-8.73-63.28-37.11-72.87-93.04-151.36-180.83-233.97-266.52.01-.03.01-.07.02-.1-21.95-22.39-50.78-49.13-75.82-73.6-95.22-93.11-198.79-178.88-303.35-262.76C715.01,32.26,885.52-3.83,1055.14,3.33c0-.01.01-.03.02-.04,0,.02.02.03.03.05.03,0,.06,0,.08,0-.01.02-.02.05-.04.08,115.94,178.38,205.4,401.13,224.17,610.11,7.5,83.63-11.29,127.88-39.26,133.75ZM911.13,643.74c74.91,52.41,98.34,97.69,85.35,124.87-8.53,17.79-33.05,28.19-70.49,27.57-125.5-2.06-249.85,4.33-375.26,15.45,0,0,0,0,0,0-33.66,3.33-76.09,9.18-113.53,13.98-145.21,18.61-290.78,48.19-435.46,79.19,21.58-184.72,94.43-363.39,211.77-512.97-.03-.06-.07-.12-.1-.18,239.53,30.44,503.8,116.48,697.72,252.09ZM860.77,982.69c9.27,18.34,2.45,44.73-21.18,74.47-78.03,98.13-215.17,305.83-215.17,305.83-17.43,28.08-37.87,64.34-56.14,95.91-68.69,118.96-129.94,244.03-187.38,369.88-148.45-118.19-259.76-275.25-323.37-449.35-.08-.01-.17-.02-.25-.03,170.59-173.97,408.87-336.02,646.52-407.74,90.81-27.43,142.83-16.98,156.97,11.02ZM948.98,1223.17c20.06,3.75,36.53,24.87,45.23,60.43,27.52,112.36,62.34,221.95,102.36,330.97,0,0,25.82,63.54,38.07,92.61,44.07,104.54,96.82,207.41,151.26,309.33-168.12,46.67-330.37,40.41-499.7,10.25l-1.09-2.32c-37.27-219.81-19.23-477.19,60.39-686.31,32.63-85.79,72.91-120.69,103.48-114.96ZM1186.21,1296.58c14.93-13.05,40.62-13.28,71.98.53,95.59,42.29,193.63,80.92,295.24,109.34l.14.02c24.89,7.4,56.07,14.87,82.89,22.12,94.28,25.42,191.53,42.42,288.88,56.25-66.4,134.15-163.37,254.31-283.71,348.88l-.13.05c-172.85-86.04-336.57-235.51-432.69-394.72-43.18-71.49-45.32-122.56-22.6-142.46Z"
  />
</svg>
