<?xml version="1.0" encoding="UTF-8"?>
<svg xmlns="http://www.w3.org/2000/svg" viewBox="0 0 104 104">
  <defs>
    <style>
      .cls-1 {
        stroke: #64c832;
        stroke-linecap: round;
        stroke-linejoin: round;
        stroke-width: 6px;
      }

      .cls-1, .cls-2 {
        fill: none;
      }
    </style>
  </defs>
  <g id="borda">
    <rect class="cls-2" width="104" height="104"/>
  </g>
  <g id="icones">
    <g>
      <path class="cls-1" d="M7.5,65.35v9.56c0,2.91,2.36,5.27,5.27,5.27h78.45c2.91,0,5.27-2.36,5.27-5.27v-9.56M96.5,65.35V29.09c0-2.91-2.36-5.27-5.27-5.27H12.77c-2.91,0-5.27,2.36-5.27,5.27v36.26h34.23"/>
      <path class="cls-1" d="M60.16,39.12h23.15c.73,0,1.32.59,1.32,1.32v11.72c0,.73-.59,1.32-1.32,1.32h-23.15c-.73,0-1.32-.59-1.32-1.32v-11.72c0-.73.59-1.32,1.32-1.32Z"/>
    </g>
  </g>
</svg>