<?xml version="1.0" encoding="UTF-8"?>
<svg id="Camada_2" data-name="Camada 2" xmlns="http://www.w3.org/2000/svg" viewBox="0 0 1819.51 448.72">
  <defs>
    <style>
      .cls-1 {
        fill: #63c733;
      }

      .cls-2 {
        fill: #146e38;
      }
    </style>
  </defs>
  <g id="Layer_1" data-name="Layer 1">
    <g>
      <path class="cls-2" d="M317.33,201.22c-12.38,10.82-21.9,12.65-26.08,8.25-2.74-2.88-3.28-8.45-1.21-15.64,6.56-22.84,11.67-45.9,15.91-69.33.03-.01.07-.03.1-.05,24.94-11.67,49.99-22.38,77.67-25.28-13.08,37.38-36.79,76.16-66.4,102.05M304.52,277.9c-15.62-3.46-23.1-10.46-22.62-16.84.31-4.18,3.95-8.2,10.34-11.04,19.65-8.71,39.05-18.3,57.32-29.79.03.02.07.04.1.06,24.2,12.35,47.45,28.03,66.16,47.89-34.01,13.25-76.1,17.51-111.29,9.72M239.89,318.55c-7.54-16.5-6.98-27.69-1.87-31.55,3.35-2.54,8.69-2.06,14.92,1.62,19,11.21,38.58,21.69,59.1,30.01,0,.04.01.08.02.12,7.38,30.84,11.68,63.2,9.78,94.95-34.16-22.38-65.17-58.4-81.96-95.14M166.51,288.96c8.47-18.04,17.52-24.81,23.75-22.92,4.09,1.24,7.09,6.18,8.19,14.13,3.49,25.09,8.53,49.72,14.68,74.35-.02.04-.06.08-.08.11-21.25,30.16-44.06,59.2-72.66,82.83-3.38-48.74,5.47-104.52,26.13-148.49M144.37,206.05c19.38-4.09,29.97-.72,32.35,5.68,1.56,4.2-.37,9.82-5.86,15.81-18.14,19.79-34.77,40.6-50.74,62.25h-.15c-39.06,2.89-79.7,1.28-117.82-8.23,38.84-34.41,91.49-64.8,142.22-75.5M193.88,138.82c14.5,12.99,18.47,23.37,15.23,29.02-2.12,3.71-7.41,5.46-15.17,4.54-26-3.06-51.93-4.25-78.16-4.45-.03-.04-.06-.08-.09-.12-24.77-29.48-47.18-62.68-61.58-98.55,49.09,11.63,102.22,35.91,139.77,69.54M270.89,139.9c-.1,18.4-4.87,27.67-10.79,28.36-3.88.46-8.34-2.75-12.4-9.42-13.28-21.81-27.82-42.61-43.26-63.02,0-.04.02-.09.03-.13,5.99-32.21,15.58-65.06,31.98-93.62,20.53,41.35,34.68,91.83,34.43,137.82"/>
      <path class="cls-1" d="M315.46,31.12c-1.46,24.58-3.23,49.21-6.56,73.26-.9,6.52-1.92,14.12-2.95,20.12.03-.01.07-.03.1-.04,24.94-11.67,49.98-22.38,77.67-25.28-17.39-27.38-40.71-50.89-68.26-68.05M414.35,173.55c-15.99,13.15-32.44,25.89-49.81,37.03-4.86,3.12-10.38,6.88-14.97,9.66.03.01.07.03.1.05,24.2,12.35,47.45,28.03,66.15,47.88,4.43-32.81,4.08-61.98-1.46-94.62M387.63,343.46c-19.92-5.05-39.77-10.78-58.82-18.29-5.43-2.14-11.74-4.41-16.76-6.55,0,.04.02.08.02.12,7.38,30.84,11.68,63.2,9.78,94.94,26.85-18.13,49.34-42.32,65.78-70.22M244.28,445.62c-9.27-23.37-18.18-46.92-25.25-70.65-1.97-6.59-4.29-14.25-5.9-20.46-.02.04-.06.08-.08.11-21.25,30.16-44.05,59.19-72.65,82.82,34.53,10.11,68.08,14.86,103.88,8.18M60.36,386.34c14.41-26.27,29.6-52.28,46.21-76.81,4.41-6.51,9.37-13.99,13.54-19.76-.05,0-.1,0-.15,0-39.05,2.89-79.69,1.28-117.8-8.23,9.75,39.31,29.74,75.9,58.19,104.79M0,176.82c30.63-3.75,61.42-7.17,91.92-8.2,7.88-.27,16.81-.67,23.87-.68-.03-.04-.06-.08-.09-.12-24.77-29.47-47.17-62.68-61.57-98.53C26.8,99.49,8.14,136.96,0,176.82M236.45,2.08c-16.4,28.56-25.98,61.4-31.97,93.61-.01.04-.02.09-.03.13-4.11-5.35-9.58-11.8-14.3-17.67-17.91-22.3-37.7-43.17-57.73-63.65C165.29,1.3,201.39-3.02,236.45,2.08"/>
      <path class="cls-1" d="M1811.36,128.63l8.15-58.26h-67.45l-8.15,58.26h67.46ZM1710.01,370.77h67.45l29.7-212.13h-67.46l-29.7,212.13ZM851.67,128.63l8.15-58.26h-67.45l-8.15,58.26h67.45ZM750.32,370.77h67.46l29.7-212.13h-67.46l-29.69,212.13ZM535.49,149.03c-5.68,43.78,9.62,69.66,51.18,86.55l54.88,21.84c17.42,6.37,21.27,9.62,19.02,26.87-3.39,22.24-12.04,28.18-50.4,28.18h-93.23l-8.29,58.26h104.24c81.2,0,108.47-19.14,116.71-81.93,5.08-39.63-1.78-68.07-51.65-87.41l-51.88-19.75c-20.1-7.51-23.81-10.51-21.14-28.11,3.07-19.61,10.3-23.85,25.35-24.9h111.25l8.29-58.26h-99.3c-67.58,0-105.93,12.53-115.03,78.66M1248.16,158.64h-13.08c-24.83,0-49.14,12.3-80.47,40.93v-40.93h-53.64l-29.69,212.13h67.9l16.45-122.01c8.55-10.89,32.33-23.73,50.02-23.73h14.49l.51-2.32c.06-.27,6.18-27.54,24.92-59.63l2.6-4.45ZM1357.53,244.82c19.76-1.58,28.93-5.45,31.24-24.19.56-6.54-.11-10.51-2.2-12.79-3.08-3.36-10.36-4.03-21.11-4.03-1.99,0-4.1.02-6.35.06-31.76,0-39.6,10.84-45.82,45.18l44.25-4.23ZM1443.88,176.34c10.3,11.88,13.76,28.54,10.57,50.92-6.59,45.15-38.26,56.37-87.22,59.84l-58.2,4.38c1.57,24.47,14.32,29.05,38.33,29.05,20.7,0,70.59-2.44,78.74-4.51l3.28-.84.38,3.37c2.01,17.71,7.91,37.3,7.97,37.5l.77,2.55-2.45,1.04c-26.48,11.11-68.22,16.17-95.81,16.17-39.1,0-65.99-8.87-82.21-27.11-16.53-18.59-22.21-47.61-17.37-88.72,9.72-80.15,40.65-107.19,122.59-107.19,40.5,0,66.87,7.71,80.62,23.56M983.92,152.78c-38.36,0-64.61,7.97-82.62,25.08-17.78,16.9-28.3,42.72-34.09,83.72-5.79,40.74-.85,69.49,15.12,87.88,15.39,17.73,41.5,26.34,79.83,26.34,18.84,0,46.52-1.72,71.43-9.9l1.75-.57,7.03-50.12-4.49.76c-17.33,2.47-39.15,3.72-64.85,3.72-17.78,0-26.63-2.18-31.57-7.78-6.12-6.94-7.28-20.45-3.98-46.63,5.91-48.54,20.99-56.38,54.8-56.38,13.7,0,64.85.88,64.85.88l6.65-47.54s-28.66-9.45-79.86-9.45M1594.57,202.19c-37.65,0-45.68,4.79-53.12,59.78-3.81,28.18-4.93,45.75.66,52.15,2.31,2.65,6.23,3.75,12.19,3.49,20.57-.41,36.92-11.26,58-29.91l11.92-85.5h-29.65ZM1711.15,70.79l-42.48,299.98h-54.05v-33.53c-26.78,25.59-54.6,38.56-82.78,38.56-19.79,0-34.42-5.72-44.73-17.47-15.91-18.14-20.57-50.19-14.27-97.98,12.44-89.58,45.87-107.57,95.79-107.57,19.73,0,42.33,1.78,62.42,4.75l12.28-86.74h67.82Z"/>
    </g>
  </g>
</svg>