<?xml version="1.0" encoding="UTF-8"?>
<svg xmlns="http://www.w3.org/2000/svg" viewBox="0 0 104 104">
  <defs>
    <style>
      .cls-1 {
        stroke: #64c832;
        stroke-linecap: round;
        stroke-linejoin: round;
        stroke-width: 6px;
      }

      .cls-1, .cls-2 {
        fill: none;
      }

      .cls-3 {
        fill: #64c832;
      }
    </style>
  </defs>
  <g id="borda">
    <rect class="cls-2" width="104" height="104"/>
  </g>
  <g id="icones">
    <g>
      <g>
        <path class="cls-1" d="M27.99,39.88h-14.93c-2.9,0-5.26,2.35-5.26,5.26v9.53M7.81,54.67v36.13c0,2.9,2.35,5.26,5.26,5.26h78.18c2.9,0,5.26-2.35,5.26-5.26v-41.95s-.01-3.32-.01-3.51c0-2.9-2.26-5.26-5.16-5.26h-12.04"/>
        <path class="cls-1" d="M25.18,28.15,7.5,7.94h11.6c.6,0,1.13.41,1.27,1l12.13,48.52c.15.58.67,1,1.27,1h38.43c.57,0,1.07-.36,1.25-.9l9.23-27.68c.28-.85-.35-1.73-1.25-1.73H25.18"/>
      </g>
      <circle class="cls-3" cx="39.75" cy="69.77" r="5.92"/>
      <circle class="cls-3" cx="66.21" cy="69.77" r="5.92"/>
    </g>
  </g>
</svg>