<?xml version="1.0" encoding="UTF-8"?>
<svg xmlns="http://www.w3.org/2000/svg" viewBox="0 0 104 104">
  <defs>
    <style>
      .cls-1 {
        stroke: #64c832;
        stroke-linecap: round;
        stroke-linejoin: round;
        stroke-width: 6px;
      }

      .cls-1, .cls-2 {
        fill: none;
      }
    </style>
  </defs>
  <g id="borda">
    <rect class="cls-2" width="104" height="104"/>
  </g>
  <g id="icones">
    <g>
      <path class="cls-1" d="M42.54,12.4c-2.36-3.2-6.14-5.03-10.11-4.89-7.21,0-13.06,5.83-13.06,13.04,0,3.75,1.61,7.32,4.42,9.8,6.85,6.04,28.22,9.79,28.22,9.79,0-9.79-5.55-23.33-9.46-27.73ZM61.46,12.4c2.36-3.2,6.14-5.03,10.11-4.89,7.21,0,13.06,5.83,13.06,13.04,0,3.75-1.61,7.32-4.42,9.8-6.85,6.04-28.22,9.79-28.22,9.79,0-9.79,5.55-23.33,9.46-27.73Z"/>
      <path class="cls-1" d="M52,40.13H12.77c-2.91,0-5.27,2.36-5.27,5.27v9.56M96.5,54.97v-9.56c0-2.91-2.36-5.27-5.27-5.27h-39.23v56.37M7.5,54.97v36.26c0,2.91,2.36,5.27,5.27,5.27h78.45c2.91,0,5.27-2.36,5.27-5.27v-36.26"/>
    </g>
  </g>
</svg>